<svg width="1200" height="720" viewBox="0 0 1200 720" fill="none" xmlns="http://www.w3.org/2000/svg">
  <rect width="1200" height="720" rx="44" fill="#F8FAF7"/>
  <circle cx="1010" cy="140" r="190" fill="#EAF5EC"/>
  <circle cx="180" cy="585" r="220" fill="#FFF6D6"/>
  <g transform="translate(145 170)"><rect width="250" height="32" rx="5" fill="#C98549"/><rect y="66" width="250" height="32" rx="5" fill="#C98549"/><rect x="24" y="28" width="52" height="62" fill="#A96534"/><rect x="99" y="28" width="52" height="62" fill="#A96534"/><rect x="174" y="28" width="52" height="62" fill="#A96534"/></g>
  <g transform="translate(480 120) scale(1.3)"><rect width="250" height="32" rx="5" fill="#C98549"/><rect y="66" width="250" height="32" rx="5" fill="#C98549"/><rect y="132" width="250" height="32" rx="5" fill="#C98549"/><rect x="24" y="28" width="52" height="128" fill="#A96534"/><rect x="99" y="28" width="52" height="128" fill="#A96534"/><rect x="174" y="28" width="52" height="128" fill="#A96534"/></g>
  <g transform="translate(820 330) scale(.88)"><rect width="250" height="32" rx="5" fill="#C98549"/><rect y="66" width="250" height="32" rx="5" fill="#C98549"/><rect y="132" width="250" height="32" rx="5" fill="#C98549"/><rect x="24" y="28" width="52" height="128" fill="#A96534"/><rect x="99" y="28" width="52" height="128" fill="#A96534"/><rect x="174" y="28" width="52" height="128" fill="#A96534"/></g>
  <path d="M190 475H960" stroke="#2F7D46" stroke-width="10" stroke-linecap="round" stroke-dasharray="2 28"/>
</svg>
