<svg width="1200" height="720" viewBox="0 0 1200 720" fill="none" xmlns="http://www.w3.org/2000/svg"><rect width="1200" height="720" rx="44" fill="#EFF5F1"/><rect y="465" width="1200" height="255" fill="#D8E1D8"/><path d="M140 300h580v210H140V300Z" fill="#F8FAF7"/><path d="M720 365h160l110 95v50H720V365Z" fill="#DDE7DB"/><g transform="translate(210 350)"><rect width="410" height="32" rx="5" fill="#C98549"/><rect y="64" width="410" height="32" rx="5" fill="#C98549"/><rect x="35" y="28" width="66" height="66" fill="#A96534"/><rect x="172" y="28" width="66" height="66" fill="#A96534"/><rect x="309" y="28" width="66" height="66" fill="#A96534"/></g><circle cx="300" cy="525" r="50" fill="#111711"/><circle cx="810" cy="525" r="50" fill="#111711"/><path d="M150 570h825" stroke="#2F7D46" stroke-width="10" stroke-linecap="round"/><circle cx="995" cy="185" r="115" fill="#FFF6D6"/><path d="M950 184l36 36 72-82" stroke="#2F7D46" stroke-width="20" stroke-linecap="round" stroke-linejoin="round"/></svg>
