<svg width="960" height="720" viewBox="0 0 960 720" fill="none" xmlns="http://www.w3.org/2000/svg">
  <rect width="960" height="720" rx="44" fill="#EEF4EC"/>
  <rect y="450" width="960" height="270" fill="#DCE6DA"/>
  <rect x="125" y="260" width="520" height="220" rx="24" fill="#F7FAF5" stroke="#BFD0BB" stroke-width="8"/>
  <rect x="645" y="330" width="165" height="150" rx="20" fill="#2F7D46"/>
  <rect x="680" y="365" width="92" height="55" rx="10" fill="#EAF5EC" opacity=".78"/>
  <circle cx="260" cy="510" r="46" fill="#102014"/><circle cx="260" cy="510" r="18" fill="#8EA086"/>
  <circle cx="705" cy="510" r="46" fill="#102014"/><circle cx="705" cy="510" r="18" fill="#8EA086"/>
  <g transform="translate(180 210)">
    <g fill="#B87945"><rect width="330" height="32" rx="4"/><rect y="66" width="330" height="32" rx="4"/><rect y="132" width="330" height="32" rx="4"/></g>
    <g fill="#8E5C30"><rect x="32" y="28" width="46" height="110"/><rect x="142" y="28" width="46" height="110"/><rect x="252" y="28" width="46" height="110"/></g>
  </g>
  <circle cx="775" cy="190" r="68" fill="#F4C542" opacity=".9"/>
  <path d="M746 192l18 18 40-48" stroke="#17452A" stroke-width="14" stroke-linecap="round" stroke-linejoin="round"/>
</svg>
