<svg width="900" height="700" viewBox="0 0 900 700" fill="none" xmlns="http://www.w3.org/2000/svg">
  <rect width="900" height="700" rx="42" fill="#F8FAF7"/>
  <ellipse cx="450" cy="558" rx="310" ry="48" fill="#D7DED5"/>
  <g transform="translate(120 150) skewY(-10)">
    <g fill="#D19057"><rect x="0" y="0" width="650" height="48" rx="8"/><rect x="0" y="92" width="650" height="48" rx="8"/><rect x="0" y="184" width="650" height="48" rx="8"/></g>
    <g fill="#B87945"><rect x="40" y="42" width="86" height="86" rx="8"/><rect x="282" y="42" width="86" height="86" rx="8"/><rect x="524" y="42" width="86" height="86" rx="8"/><rect x="40" y="135" width="86" height="86" rx="8"/><rect x="282" y="135" width="86" height="86" rx="8"/><rect x="524" y="135" width="86" height="86" rx="8"/></g>
    <g opacity=".42" stroke="#F8D9B6" stroke-width="5"><path d="M28 23H620M28 115H620M28 207H620"/></g>
  </g>
</svg>
