<svg width="900" height="700" viewBox="0 0 900 700" fill="none" xmlns="http://www.w3.org/2000/svg">
  <rect width="900" height="700" rx="42" fill="#F8FAF7"/>
  <ellipse cx="450" cy="558" rx="320" ry="52" fill="#D7DED5"/>
  <g transform="translate(124 140) skewY(-8)">
    <g fill="#C98549"><rect x="0" y="0" width="650" height="42" rx="8"/><rect x="0" y="75" width="650" height="42" rx="8"/><rect x="0" y="150" width="650" height="42" rx="8"/><rect x="0" y="225" width="650" height="42" rx="8"/></g>
    <g fill="#A96534"><rect x="28" y="34" width="86" height="225" rx="6"/><rect x="188" y="34" width="86" height="225" rx="6"/><rect x="348" y="34" width="86" height="225" rx="6"/><rect x="508" y="34" width="86" height="225" rx="6"/></g>
    <g fill="#8E5C30" opacity=".28"><rect x="0" y="265" width="650" height="32" rx="6"/></g>
    <g opacity=".45" stroke="#F5D5AE" stroke-width="5"><path d="M28 20H620M28 95H620M28 170H620M28 245H620"/></g>
  </g>
</svg>
