<svg width="760" height="560" viewBox="0 0 760 560" fill="none" xmlns="http://www.w3.org/2000/svg"><rect width="760" height="560" rx="36" fill="#F4F6F3"/><rect y="390" width="760" height="170" fill="#D5DAD4"/><g transform="translate(80 110)"><ellipse cx="130" cy="95" rx="120" ry="45" fill="#C1C8C8"/><rect x="10" y="95" width="240" height="150" fill="#AAB4B4"/><ellipse cx="130" cy="245" rx="120" ry="45" fill="#929F9F"/><ellipse cx="130" cy="95" rx="68" ry="25" fill="#E7ECEC"/><ellipse cx="430" cy="120" rx="125" ry="45" fill="#C1C8C8"/><rect x="305" y="120" width="250" height="135" fill="#AAB4B4"/><ellipse cx="430" cy="255" rx="125" ry="45" fill="#929F9F"/><ellipse cx="430" cy="120" rx="74" ry="24" fill="#E7ECEC"/></g><g transform="translate(185 385)"><rect width="390" height="28" rx="5" fill="#C98549"/><rect y="58" width="390" height="28" rx="5" fill="#C98549"/><rect x="38" y="24" width="58" height="58" fill="#A96534"/><rect x="166" y="24" width="58" height="58" fill="#A96534"/><rect x="294" y="24" width="58" height="58" fill="#A96534"/></g></svg>
