<svg width="760" height="560" viewBox="0 0 760 560" fill="none" xmlns="http://www.w3.org/2000/svg"><rect width="760" height="560" rx="36" fill="#F8F3EA"/><rect y="390" width="760" height="170" fill="#DFD5C6"/><path d="M120 392V185h95v207M285 392V130h120v262M485 392V220h140v172" fill="#CFB592"/><path d="M55 170H705" stroke="#B87945" stroke-width="12"/><path d="M210 95h360l80 75H130l80-75Z" fill="#D9B06D"/><path d="M275 95v75M405 95v75M535 95v75" stroke="#8E5C30" stroke-width="8"/><g transform="translate(185 375)"><rect width="390" height="28" rx="5" fill="#C98549"/><rect y="58" width="390" height="28" rx="5" fill="#C98549"/><rect x="38" y="24" width="58" height="58" fill="#A96534"/><rect x="166" y="24" width="58" height="58" fill="#A96534"/><rect x="294" y="24" width="58" height="58" fill="#A96534"/></g></svg>
