<svg width="760" height="560" viewBox="0 0 760 560" fill="none" xmlns="http://www.w3.org/2000/svg"><rect width="760" height="560" rx="36" fill="#F5FAF5"/><rect y="380" width="760" height="180" fill="#DDEADF"/><g fill="#D4E7D8"><rect x="80" y="80" width="120" height="220" rx="10"/><rect x="230" y="80" width="120" height="220" rx="10"/><rect x="380" y="80" width="120" height="220" rx="10"/><rect x="530" y="80" width="120" height="220" rx="10"/></g><g transform="translate(135 330)"><rect width="490" height="34" rx="6" fill="#C98549"/><rect y="68" width="490" height="34" rx="6" fill="#C98549"/><rect x="42" y="30" width="72" height="72" fill="#A96534"/><rect x="209" y="30" width="72" height="72" fill="#A96534"/><rect x="376" y="30" width="72" height="72" fill="#A96534"/></g><path d="M626 122c-45 45-47 90-6 135 45-43 48-88 6-135Z" fill="#2F7D46" opacity=".8"/></svg>
