<svg width="1200" height="720" viewBox="0 0 1200 720" fill="none" xmlns="http://www.w3.org/2000/svg"><rect width="1200" height="720" rx="44" fill="#F8FAF7"/><rect y="470" width="1200" height="250" fill="#DDE7DB"/><rect x="130" y="320" width="420" height="185" rx="18" fill="#2F7D46"/><rect x="550" y="365" width="140" height="140" fill="#17452A"/><rect x="170" y="255" width="210" height="80" rx="12" fill="#F4C542"/><circle cx="240" cy="520" r="58" fill="#172116"/><circle cx="610" cy="520" r="58" fill="#172116"/><path d="M635 250c-55 50-86 90-96 145" stroke="#17452A" stroke-width="18" stroke-linecap="round"/><path d="M650 250h220" stroke="#17452A" stroke-width="18" stroke-linecap="round"/><g transform="translate(730 380)"><rect width="250" height="26" rx="5" fill="#C98549"/><rect y="54" width="250" height="26" rx="5" fill="#C98549"/><rect x="25" y="22" width="46" height="58" fill="#A96534"/><rect x="102" y="22" width="46" height="58" fill="#A96534"/><rect x="179" y="22" width="46" height="58" fill="#A96534"/></g><rect x="780" y="265" width="95" height="70" rx="8" fill="#C8B29B"/><rect x="900" y="285" width="95" height="50" rx="6" fill="#B6BEC0"/><rect x="1012" y="272" width="70" height="64" rx="8" fill="#D9C4A8"/></svg>
